<svg width="23" height="23" viewBox="0 0 23 23" fill="none" xmlns="http://www.w3.org/2000/svg">
<path d="M14.9002 8.37941C14.7234 5.70527 13.762 3.08638 11.9829 0.909498C11.5299 0.35699 10.7011 0.35699 10.2481 0.909498C8.42479 3.09743 7.40818 5.71632 7.18717 8.37941C8.60159 9.13082 9.90551 10.1032 11.0437 11.2856C12.1818 10.1143 13.4858 9.14187 14.9002 8.37941ZM7.71758 11.3077C7.56288 11.1972 7.38608 11.0977 7.22032 10.9872C7.38608 11.1088 7.56288 11.1972 7.71758 11.3077ZM14.8118 11.0314C14.6681 11.1309 14.5134 11.2083 14.3698 11.3188C14.5134 11.2083 14.6681 11.1309 14.8118 11.0314ZM11.0437 14.8106C8.8889 11.5287 5.3639 9.25237 1.28638 8.85457C0.579174 8.78827 -0.00648465 9.37392 0.0598163 10.0811C0.557074 15.3852 4.09313 19.7832 8.87785 21.496C9.57401 21.7501 10.3033 21.938 11.0547 22.0595C11.8061 21.9269 12.5244 21.7391 13.2316 21.496C18.0163 19.7832 21.5524 15.3963 22.0496 10.0811C22.1159 9.37392 21.5192 8.78827 20.8231 8.85457C16.7235 9.25237 13.1985 11.5287 11.0437 14.8106Z" fill="#9E77ED"/>
</svg>
